<svg width="54" height="54" viewBox="0 0 54 54" fill="none" xmlns="http://www.w3.org/2000/svg">
<path d="M31.3401 31.476L31.4917 30.8789L32.7392 31.4528L33.293 31.1803C33.3338 29.2268 34.9137 28.4153 35.5666 26.8501C35.8347 26.2125 36.4702 22.4909 36.9132 22.5025L38.6155 25.4531C38.8895 25.6154 39.2101 25.4415 39.4783 25.3604C40.8191 24.9372 45.9142 21.4359 47.1501 20.3925C47.9837 19.6853 48.3918 19.4476 47.9138 18.323C49.8317 17.6854 50.8519 16.8565 49.6743 14.9029C49.1555 14.045 48.5084 13.4769 47.4707 13.4943C45.2205 13.5233 46.3806 15.1928 46.0541 16.7637C44.9232 16.613 39.589 21.7258 39.1693 21.2968C40.0088 19.7838 39.863 17.1405 39.4025 15.5232C38.9419 13.9059 37.0648 12.4973 37.3621 10.5148L40.0846 11.2741C40.7608 10.4916 41.0931 9.50611 41.5886 8.63079C41.6994 8.4337 42.1774 8.4395 42.2007 8.22502C42.2532 7.70331 41.7169 6.94972 41.8859 6.31787C46.2173 9.21047 53.038 10.6481 53.6327 16.6536C54.1224 21.5924 54.1224 32.3803 53.6327 37.3192C53.4111 39.5393 52.6358 41.0117 50.9277 42.4203C48.6425 44.3043 43.9729 46.1245 41.7518 43.4464C39.8922 41.203 38.05 36.1714 36.1612 34.328C35.1294 33.3194 32.6051 32.4209 31.3401 31.476Z" fill="#165BCC"/>
<path d="M18.3809 27.2849C19.8674 27.8356 20.8935 29.3718 22.6015 29.3892C21.7154 31.4702 22.6948 33.6498 24.4262 34.9077L27.4168 36.5714C26.1343 36.9598 22.7065 34.7686 22.1352 34.7628C21.3074 34.757 20.7827 36.9714 20.054 37.4931C18.4916 38.6119 10.1086 36.6178 7.71845 37.2149L7.2754 37.6728L6.02203 45.2608C6.77405 42.6117 5.0543 40.4031 4.81529 38.2235C4.47717 35.128 5.10677 31.534 4.77448 28.3805L4.3256 27.9284L0 27.2907C3.92335 27.14 7.96913 26.9197 11.7642 25.9343L11.5777 21.8939C11.9741 21.2737 14.2185 20.8099 14.8773 20.3636C15.9033 19.6622 16.1015 17.9695 18.0661 18.1434L23.406 12.3524L27.1137 13.5175C27.2653 13.7204 24.8518 18.2651 25.7612 18.3115C28.6586 17.2855 34.4124 18.4912 35.1353 14.4218C35.3277 13.3378 34.5465 12.5437 35.555 11.8655C36.9775 11.2568 35.9806 15.9174 35.7707 16.5783C34.5057 20.5259 31.4743 19.3781 28.4603 20.3926C27.6675 20.6592 26.8047 21.4012 26.2917 21.5345C25.3823 21.7664 24.5078 21.4418 23.5168 21.7722C22.6715 22.0504 17.9961 26.7632 18.3809 27.2965V27.2849Z" fill="#165BCC"/>
<path d="M37.8519 47.4636C38.2425 48.0665 40.93 52.1532 40.6735 52.4489L37.8694 50.1012C34.6456 51.5736 31.7541 54.5183 27.8949 53.9213C21.9253 51.3996 16.5154 47.5912 10.8257 44.4841L12.0499 41.661C13.006 41.5799 12.7728 42.6871 13.6997 42.861C14.9764 43.0986 21.5814 42.9595 22.6657 42.4784C24.4671 41.6784 27.2653 36.8033 28.7402 36.8671C29.2474 36.8903 31.725 37.7018 32.0747 38.0786C33.812 40.9596 35.316 44.0203 37.1116 46.8666C37.3098 47.1796 37.747 47.3013 37.8519 47.4636Z" fill="#165BCC"/>
<path d="M33.4448 1.23407L32.5412 2.72385L33.4448 2.87456C33.3048 3.1644 32.6927 3.22237 32.5936 3.37889C32.1447 4.12088 34.4883 8.91483 34.0219 9.58726C30.3376 11.3669 24.0182 8.11487 20.7011 9.07714C20.2581 9.20467 16.8419 13.2566 16.2764 13.9638C15.7401 14.6363 15.5652 15.5696 15.2504 15.9116C14.8074 16.3927 11.5253 18.3694 11.1522 18.0042L10.5692 14.2363L6.75663 14.3754C5.87635 15.0536 7.01897 17.726 6.62838 18.8969L6.02793 15.0073H3.31714C3.57947 14.416 4.46558 14.7928 5.1185 14.2479C5.52658 13.9059 5.70146 13.1059 6.17367 12.6016C8.05081 10.5959 23.0622 1.95287 26.0994 0.665984C28.9093 -0.52236 30.7981 0.0109458 33.4448 1.23407Z" fill="#165BCC"/>
<path d="M9.63626 25.1922L6.92548 25.4878L6.62816 21.5924C6.44161 21.4011 5.12411 22.0619 5.42143 20.9953L6.91965 20.6938L7.35687 24.9081L9.63626 25.1922Z" fill="#165BCC"/>
</svg>
